<svg width="1600" height="520" viewBox="0 0 1600 520" fill="none" xmlns="http://www.w3.org/2000/svg" role="img" aria-labelledby="title desc">
  <title id="title">nongchan.us 农产品期货主力合约 Dashboard Logo</title>
  <desc id="desc">A clean agricultural futures logo combining a wheat leaf, rising market line, and the nongchan.us wordmark.</desc>
  <rect width="1600" height="520" rx="72" fill="#FFFFFF"/>

  <g transform="translate(118 82)">
    <rect x="0" y="0" width="356" height="356" rx="88" fill="#F6FAF4" stroke="#D9E8D1" stroke-width="8"/>

    <!-- Field curve -->
    <path d="M58 253C111 206 169 188 232 197C264 202 286 214 310 234" stroke="#D9A441" stroke-width="18" stroke-linecap="round"/>
    <path d="M58 295C111 248 169 230 232 239C264 244 286 256 310 276" stroke="#E8C679" stroke-width="14" stroke-linecap="round" opacity="0.75"/>

    <!-- Wheat stem -->
    <path d="M178 265C176 213 179 159 191 96" stroke="#2E7D32" stroke-width="18" stroke-linecap="round"/>

    <!-- Wheat grains / leaves -->
    <path d="M191 105C158 119 139 142 134 174C165 169 185 147 191 105Z" fill="#69A84F"/>
    <path d="M194 121C229 131 251 153 260 184C228 183 204 160 194 121Z" fill="#7FB85F"/>
    <path d="M184 157C151 171 132 194 128 224C160 221 180 199 184 157Z" fill="#69A84F"/>
    <path d="M187 174C221 184 242 206 250 235C218 235 195 213 187 174Z" fill="#7FB85F"/>

    <!-- Market line -->
    <path d="M90 222L139 184L185 203L243 144L292 158" stroke="#1F6B3A" stroke-width="16" stroke-linecap="round" stroke-linejoin="round"/>
    <path d="M256 126L303 155L256 176" stroke="#1F6B3A" stroke-width="16" stroke-linecap="round" stroke-linejoin="round"/>

    <!-- Subtle sun / data dot -->
    <circle cx="95" cy="92" r="26" fill="#F2B544"/>
    <circle cx="95" cy="92" r="42" stroke="#F2B544" stroke-width="8" opacity="0.18"/>
  </g>

  <g transform="translate(552 134)">
    <text x="0" y="90" font-family="Inter, 'Noto Sans SC', 'Microsoft YaHei', Arial, sans-serif" font-size="96" font-weight="800" letter-spacing="-3" fill="#16351F">nongchan.us</text>
    <text x="2" y="166" font-family="Inter, Arial, sans-serif" font-size="42" font-weight="650" letter-spacing="0.5" fill="#49634D">Agri Futures Dashboard</text>
    <g transform="translate(2 210)">
      <rect x="0" y="0" width="164" height="42" rx="21" fill="#F6FAF4" stroke="#D9E8D1" stroke-width="2"/>
      <text x="82" y="28" text-anchor="middle" font-family="Inter, 'Noto Sans SC', 'Microsoft YaHei', Arial, sans-serif" font-size="22" font-weight="700" fill="#2E7D32">AGRI</text>
      <rect x="184" y="0" width="184" height="42" rx="21" fill="#FFF8E8" stroke="#F0D898" stroke-width="2"/>
      <text x="276" y="28" text-anchor="middle" font-family="Inter, 'Noto Sans SC', 'Microsoft YaHei', Arial, sans-serif" font-size="22" font-weight="700" fill="#986F16">FUTURES</text>
      <rect x="388" y="0" width="168" height="42" rx="21" fill="#F6FAF4" stroke="#D9E8D1" stroke-width="2"/>
      <text x="472" y="28" text-anchor="middle" font-family="Inter, 'Noto Sans SC', 'Microsoft YaHei', Arial, sans-serif" font-size="22" font-weight="700" fill="#2E7D32">OTC</text>
    </g>
  </g>
</svg>
