<svg width="512" height="512" viewBox="0 0 512 512" fill="none" xmlns="http://www.w3.org/2000/svg" role="img" aria-labelledby="title desc">
  <title id="title">nongchan.us app icon</title>
  <desc id="desc">Simple agricultural futures app icon with wheat, field, and rising market line.</desc>
  <rect width="512" height="512" rx="112" fill="#FFFFFF"/>
  <rect x="48" y="48" width="416" height="416" rx="104" fill="#F6FAF4" stroke="#D9E8D1" stroke-width="10"/>
  <path d="M108 352C174 296 244 276 320 288C360 294 389 310 424 338" stroke="#D9A441" stroke-width="24" stroke-linecap="round"/>
  <path d="M108 402C174 346 244 326 320 338C360 344 389 360 424 388" stroke="#E8C679" stroke-width="18" stroke-linecap="round" opacity="0.72"/>
  <path d="M256 365C253 296 257 221 273 136" stroke="#2E7D32" stroke-width="24" stroke-linecap="round"/>
  <path d="M273 148C229 166 204 198 198 239C240 234 265 204 273 148Z" fill="#69A84F"/>
  <path d="M277 170C323 183 353 213 364 254C321 252 289 221 277 170Z" fill="#7FB85F"/>
  <path d="M263 217C220 235 195 266 189 306C231 302 256 274 263 217Z" fill="#69A84F"/>
  <path d="M268 238C313 252 342 281 352 320C310 320 281 290 268 238Z" fill="#7FB85F"/>
  <path d="M128 304L190 256L249 280L326 202L396 222" stroke="#1F6B3A" stroke-width="22" stroke-linecap="round" stroke-linejoin="round"/>
  <path d="M349 178L410 219L348 250" stroke="#1F6B3A" stroke-width="22" stroke-linecap="round" stroke-linejoin="round"/>
  <circle cx="139" cy="139" r="34" fill="#F2B544"/>
  <circle cx="139" cy="139" r="56" stroke="#F2B544" stroke-width="10" opacity="0.18"/>
</svg>
